<?xml version="1.0" encoding="iso-8859-1"?>
<!-- Generator: Adobe Illustrator 19.0.0, SVG Export Plug-In . SVG Version: 6.00 Build 0)  -->
<svg version="1.1" id="Layer_1" xmlns="http://www.w3.org/2000/svg" xmlns:xlink="http://www.w3.org/1999/xlink" x="0px" y="0px"
	 viewBox="0 0 511.999 511.999" style="enable-background:new 0 0 511.999 511.999;" xml:space="preserve">
<path style="fill:#FFF297;" d="M492.687,19.24c-32.932-32.942-127.038,7.781-210.191,90.96
	c-22.325,22.334-41.59,45.456-57.192,67.973v21.505c0,5.8-4.743,10.546-10.541,10.546h-19.409
	c-6.113,5.508-12.197,11.274-18.213,17.294c-54.275,54.292-88.451,113.764-91.833,153.659l45.55,45.564
	c39.883-3.382,99.338-37.567,153.614-91.86c6.019-6.021,11.78-12.105,17.289-18.219v-19.413c0-5.8,4.743-10.545,10.541-10.545
	h21.499c22.509-15.607,45.626-34.876,67.954-57.211C484.906,146.313,525.618,52.18,492.687,19.24z"/>
<g>
	<path style="fill:#FFD655;" d="M130.859,426.742c27.904-2.369,65.387-19.813,103.977-48.676l-88.146-1.467
		c-2.881-0.045-5.505-1.269-7.422-3.208c-1.919-1.938-3.124-4.591-3.171-7.512l-1.456-89.606
		c-29.254,38.915-46.948,76.773-49.335,104.901L130.859,426.742z"/>
	<path style="fill:#FFD655;" d="M356.591,168.836c-3.443-0.053-6.582-1.517-8.874-3.834c-2.292-2.319-3.735-5.491-3.79-8.98
		l-1.58-97.276c-19.927,14.505-40.196,31.791-59.851,51.453c-3.703,3.703-7.314,7.43-10.842,11.17l1.689,103.931
		c0.062,3.867,1.66,7.385,4.202,9.954c2.541,2.57,6.022,4.192,9.838,4.251l102.284,1.703c4.049-3.806,8.081-7.712,12.088-11.719
		c19.389-19.395,36.469-39.385,50.845-59.057L356.591,168.836z"/>
</g>
<path style="fill:#FF8828;" d="M389.666,241.21l-102.284-1.703c-3.816-0.06-7.297-1.681-9.838-4.251s-4.14-6.087-4.202-9.954
	l-1.689-103.932c-17.763,18.817-33.335,38.02-46.35,56.802v21.505c0,5.8-4.743,10.546-10.541,10.546h-19.409
	c-2.052,1.85-4.099,3.738-6.143,5.645l1.495,92.095c0.062,3.867,1.661,7.385,4.202,9.954c2.541,2.57,6.021,4.192,9.838,4.252
	l90.555,1.506c2.187-2.333,4.347-4.671,6.46-7.016v-19.413c0-5.8,4.743-10.545,10.541-10.545H333.8
	C352.27,273.895,371.148,258.619,389.666,241.21z"/>
<path style="opacity:0.1;enable-background:new    ;" d="M492.687,19.24c-32.932-32.942-127.038,7.781-210.191,90.96
	c-22.325,22.334-41.59,45.456-57.192,67.973v21.505c0,5.8-4.743,10.546-10.541,10.546h-19.409
	c-6.113,5.508-12.197,11.274-18.213,17.294c-54.275,54.292-88.451,113.764-91.833,153.659l24.536,24.544
	c2.343-39.888,36.767-100.497,91.992-155.736c6.017-6.02,12.1-11.785,18.213-17.294h19.409c5.798,0,10.541-4.745,10.541-10.546
	v-21.505c15.603-22.516,34.867-45.639,57.192-67.973c71.981-72.003,152.161-112.18,193.77-100.312
	C499.078,27.297,496.337,22.891,492.687,19.24z"/>
<polygon style="fill:#B59472;" points="130.922,426.804 68.521,443.529 85.242,381.109 "/>
<path d="M498.228,13.699c-18.356-18.362-52.063-18.263-94.918,0.282c-40.586,17.563-85.46,49.766-126.359,90.676
	c-22.156,22.164-41.701,45.396-58.091,69.05c-0.909,1.311-1.395,2.868-1.395,4.463v21.505c0,1.467-1.238,2.708-2.704,2.708h-19.409
	c-1.938,0-3.808,0.718-5.247,2.016c-6.316,5.693-12.544,11.605-18.508,17.575c-36.876,36.888-65.91,77.373-81.75,113.998
	c-6.869,15.882-10.913,30.373-12.179,43.122l-16.176,60.38l-14.5,14.505l3.99-23.903c0.713-4.27-2.17-8.307-6.44-9.02
	c-4.27-0.712-8.308,2.169-9.02,6.44l-7.35,44.039c-0.079,0.478-0.127,0.951-0.15,1.42l-25.66,25.666
	c-3.06,3.062-3.06,8.024,0.001,11.083c1.531,1.531,3.536,2.295,5.541,2.295s4.012-0.766,5.542-2.296l25.42-25.428
	c0.601-0.008,1.209-0.057,1.822-0.158l43.526-7.253c4.27-0.713,7.154-4.749,6.442-9.019c-0.712-4.271-4.749-7.156-9.019-6.443
	l-23.884,3.98l14.826-14.83l60.219-16.139c12.775-1.257,27.32-5.327,43.246-12.219c36.615-15.846,77.089-44.887,113.966-81.775
	c5.973-5.976,11.884-12.205,17.569-18.514c1.297-1.44,2.015-3.308,2.015-5.247v-19.413c0-1.467,1.238-2.707,2.704-2.707h21.499
	c1.596,0,3.155-0.487,4.465-1.397c23.659-16.405,46.884-35.956,69.031-58.109c42.133-42.146,74.817-88.189,92.026-129.645
	c1.659-3.997-0.236-8.584-4.233-10.244c-3.999-1.661-8.584,0.237-10.244,4.234c-8.388,20.205-20.698,41.617-36.143,63.154
	l-37.915-0.631c-4.372-0.08-7.895,3.377-7.967,7.705c-0.071,4.329,3.377,7.895,7.705,7.967l26.548,0.442
	c-12.183,15.517-25.897,30.964-40.865,45.936c-3.182,3.183-6.387,6.301-9.611,9.371l-95.261-1.586l56.925-56.942
	c2.556,1.177,5.331,1.834,8.197,1.879l23.764,0.396c0.045,0,0.089,0.001,0.134,0.001c4.267,0,7.762-3.423,7.833-7.706
	c0.072-4.328-3.378-7.896-7.705-7.967l-18.52-0.308l59.441-59.456c3.061-3.062,3.06-8.023-0.001-11.084
	c-3.063-3.061-8.025-3.06-11.083,0.001l-58.666,58.683l-1.405-86.558c20.178-14.407,40.253-26.072,59.286-34.309
	c36.017-15.586,64.305-16.893,77.609-3.586c11.73,11.732,10.031,32.382,6.541,47.641c-0.964,4.219,1.674,8.422,5.894,9.387
	c4.215,0.967,8.422-1.674,9.387-5.893C515.234,48.508,511.521,26.994,498.228,13.699z M104.234,342.195
	c5.834-13.49,13.592-27.567,22.96-41.813l1.066,65.623c0.031,1.962,0.38,3.875,0.995,5.692l-21.171,21.177l-14.595-14.6
	C94.855,367.77,98.439,355.592,104.234,342.195z M79.603,432.444l9.695-36.192l26.486,26.495L79.603,432.444z M169.823,407.81
	c-13.391,5.795-25.564,9.382-36.063,10.748l-14.595-14.6l20.851-20.857c2.065,0.831,4.272,1.298,6.544,1.334l20.497,0.341
	c0.044,0,0.089,0,0.133,0c4.268,0,7.762-3.422,7.834-7.706c0.072-4.328-3.378-7.895-7.705-7.966l-13.089-0.218l41.127-41.138
	c2.867,1.413,6.008,2.206,9.261,2.257l72.425,1.204c-14.555,14.402-29.627,27.511-44.733,38.978l-33.642-0.56
	c-4.334-0.026-7.895,3.378-7.967,7.705c-0.072,4.328,3.377,7.895,7.705,7.967l12.222,0.203
	C196.724,394.58,182.994,402.109,169.823,407.81z M287.251,247.344l82.456,1.373c-12.584,10.966-25.41,21.051-38.37,30.149H312.3
	c-10.134,0-18.379,8.247-18.379,18.382v16.39c-0.655,0.718-1.32,1.43-1.98,2.145l-83.242-1.385l39.272-39.282
	c3.06-3.062,3.06-8.024-0.001-11.084c-3.062-3.06-8.023-3.06-11.084,0.002l-38.434,38.445l-0.078-4.818
	c-0.07-4.328-3.624-7.77-7.964-7.709c-4.327,0.07-7.779,3.636-7.709,7.964l0.165,10.172c0.046,2.873,0.638,5.665,1.725,8.254
	l-40.803,40.815l-1.272-78.347c11.53-15.114,24.695-30.184,39.148-44.727l0.544,33.529c0.069,4.284,3.564,7.71,7.834,7.71
	c0.043,0,0.087-0.001,0.13-0.001c4.328-0.07,7.78-3.634,7.71-7.964l-0.782-48.119c0.426-0.392,0.848-0.788,1.276-1.178h16.384
	c10.134,0,18.378-8.247,18.378-18.383v-19.042c9.328-13.298,19.7-26.459,30.998-39.365l1.368,84.155
	c0.045,2.874,0.638,5.666,1.724,8.255l-7.361,7.363c-3.061,3.062-3.06,8.024,0.001,11.084c1.531,1.531,3.536,2.295,5.541,2.295
	c2.006,0,4.013-0.766,5.542-2.296l7.036-7.038C280.859,246.499,284,247.294,287.251,247.344z M336.09,156.146
	c0.04,2.506,0.542,4.942,1.431,7.224l-56.43,56.447l-1.55-95.378c2.787-2.915,5.617-5.816,8.496-8.697
	c15.191-15.197,30.916-29.128,46.724-41.484L336.09,156.146z"/>
<g>
</g>
<g>
</g>
<g>
</g>
<g>
</g>
<g>
</g>
<g>
</g>
<g>
</g>
<g>
</g>
<g>
</g>
<g>
</g>
<g>
</g>
<g>
</g>
<g>
</g>
<g>
</g>
<g>
</g>
</svg>
