<svg height="511pt" viewBox="1 1 511 511.9988" width="511pt" xmlns="http://www.w3.org/2000/svg"><path d="m493.117188 19.238281c-32.933594-32.941406-127.039063 7.78125-210.191407 90.960938-22.324219 22.335937-41.589843 45.457031-57.191406 67.972656v21.503906c0 5.800781-4.742187 10.546875-10.539063 10.546875h-19.410156c-6.113281 5.507813-12.195312 11.273438-18.214844 17.292969-54.273437 54.292969-88.449218 113.765625-91.832031 153.660156l45.550781 45.5625c39.882813-3.382812 99.339844-37.566406 153.613282-91.859375 6.019531-6.019531 11.78125-12.105468 17.289062-18.21875v-19.414062c0-5.796875 4.742188-10.542969 10.542969-10.542969h21.496094c22.511719-15.605469 45.628906-34.875 67.953125-57.210937 83.152344-83.179688 123.867187-177.3125 90.933594-210.253907zm0 0" fill="#fff"/><path d="m131.289062 426.742188c27.90625-2.371094 65.386719-19.8125 103.976563-48.675782l-88.144531-1.46875c-2.882813-.042968-5.503906-1.265625-7.421875-3.207031-1.921875-1.9375-3.125-4.59375-3.171875-7.511719l-1.457032-89.605468c-29.253906 38.914062-46.949218 76.773437-49.335937 104.898437zm0 0" fill="#ffc843"/><path d="m357.023438 168.835938c-3.445313-.054688-6.582032-1.515626-8.875-3.835938-2.292969-2.316406-3.734376-5.488281-3.789063-8.976562l-1.582031-97.277344c-19.925782 14.503906-40.195313 31.789062-59.851563 51.453125-3.703125 3.703125-7.3125 7.429687-10.839843 11.171875l1.6875 103.929687c.0625 3.867188 1.660156 7.382813 4.203124 9.953125 2.539063 2.570313 6.019532 4.191406 9.835938 4.25l102.285156 1.703125c4.050782-3.804687 8.082032-7.710937 12.085938-11.71875 19.390625-19.394531 36.46875-39.382812 50.847656-59.054687zm0 0" fill="#ffc843"/><path d="m390.097656 241.210938-102.285156-1.703126c-3.816406-.058593-7.296875-1.683593-9.839844-4.25-2.539062-2.570312-4.140625-6.089843-4.199218-9.957031l-1.691407-103.929687c-17.761719 18.816406-33.332031 38.019531-46.347656 56.800781v21.503906c0 5.800781-4.746094 10.546875-10.542969 10.546875h-19.410156c-2.050781 1.851563-4.097656 3.738282-6.140625 5.644532l1.492187 92.09375c.0625 3.871093 1.664063 7.386718 4.203126 9.957031 2.542968 2.570312 6.019531 4.191406 9.839843 4.25l90.554688 1.507812c2.1875-2.335937 4.347656-4.671875 6.457031-7.015625v-19.414062c0-5.800782 4.746094-10.542969 10.542969-10.542969h21.5c18.46875-12.808594 37.347656-28.085937 55.867187-45.492187zm0 0" fill="#ff904d"/><g fill="#e1eaf8"><path d="m104.050781 325.195312c.253907-.5.511719-1 .769531-1.496093-.257812.496093-.515624.996093-.769531 1.496093zm0 0"/><path d="m253.441406 142.195312c4.859375-5.730468 9.929688-11.453124 15.199219-17.144531-5.273437 5.691407-10.34375 11.414063-15.199219 17.144531zm0 0"/><path d="m240.027344 158.71875c1.101562-1.417969 2.214844-2.835938 3.34375-4.253906-1.128906 1.417968-2.242188 2.835937-3.34375 4.253906zm0 0"/><path d="m247.40625 149.445312c.726562-.886718 1.457031-1.773437 2.191406-2.660156-.734375.886719-1.464844 1.773438-2.191406 2.660156zm0 0"/><path d="m244.328125 153.253906c.6875-.859375 1.382813-1.71875 2.078125-2.578125-.695312.859375-1.390625 1.71875-2.078125 2.578125zm0 0"/><path d="m106.464844 320.589844c.226562-.421875.445312-.84375.675781-1.265625-.230469.421875-.449219.84375-.675781 1.265625zm0 0"/><path d="m250.484375 145.714844c.785156-.945313 1.574219-1.890625 2.371094-2.832032-.796875.941407-1.585938 1.886719-2.371094 2.832032zm0 0"/><path d="m298.167969 95.539062c.644531-.597656 1.289062-1.1875 1.9375-1.78125-.648438.59375-1.292969 1.183594-1.9375 1.78125zm0 0"/><path d="m290.535156 102.738281c.546875-.527343 1.097656-1.046875 1.648438-1.574219-.550782.527344-1.101563 1.046876-1.648438 1.574219zm0 0"/><path d="m268.910156 124.761719c1.039063-1.121094 2.089844-2.242188 3.148438-3.363281-1.058594 1.117187-2.109375 2.242187-3.148438 3.363281zm0 0"/><path d="m294.347656 99.105469c.605469-.570313 1.210938-1.132813 1.820313-1.699219-.609375.566406-1.214844 1.128906-1.820313 1.699219zm0 0"/><path d="m99.367188 334.851562c.203124-.441406.40625-.886718.613281-1.332031-.207031.445313-.410157.890625-.613281 1.332031zm0 0"/><path d="m101.84375 329.601562c.128906-.261718.261719-.527343.390625-.789062-.128906.261719-.261719.527344-.390625.789062zm0 0"/><path d="m277.789062 115.414062c1.695313-1.742187 3.402344-3.480468 5.136719-5.214843-1.734375 1.734375-3.441406 3.472656-5.136719 5.214843zm0 0"/><path d="m97.484375 339.074219c.148437-.34375.304687-.691407.457031-1.039063-.152344.347656-.308594.695313-.457031 1.039063zm0 0"/><path d="m177.570312 227.515625c-16.015624 16.019531-30.261718 32.484375-42.5 48.769531l.941407 58.066406c13.511719-23.269531 31.941406-47.980468 54.382812-72.054687l-.753906-46.429687c-4.046875 3.773437-8.074219 7.648437-12.070313 11.648437zm0 0"/><path d="m121.289062 295.816406c.46875-.707031.9375-1.417968 1.414063-2.128906-.476563.710938-.945313 1.421875-1.414063 2.128906zm0 0"/><path d="m118.160156 300.644531c.398438-.625.796875-1.246093 1.199219-1.871093-.402344.625-.800781 1.246093-1.199219 1.871093zm0 0"/><path d="m132.476562 279.765625c.496094-.675781 1.003907-1.355469 1.511719-2.035156-.507812.679687-1.015625 1.355469-1.511719 2.035156zm0 0"/><path d="m128.195312 285.707031c.464844-.65625.925782-1.308593 1.394532-1.964843-.46875.65625-.929688 1.308593-1.394532 1.964843zm0 0"/><path d="m125.011719 290.273438c.453125-.660157.914062-1.324219 1.371093-1.984376-.457031.660157-.917968 1.324219-1.371093 1.984376zm0 0"/><path d="m189.644531 215.863281c.882813-.824219 1.765625-1.640625 2.644531-2.453125-.882812.8125-1.761718 1.632813-2.644531 2.453125zm0 0"/><path d="m234.15625 166.449219c.433594-.582031.867188-1.164063 1.304688-1.75-.4375.585937-.871094 1.167969-1.304688 1.75zm0 0"/><path d="m115.394531 305.0625c.308594-.5.625-1 .9375-1.503906-.3125.503906-.628906 1.003906-.9375 1.503906zm0 0"/><path d="m111.960938 310.792969c.324218-.554688.648437-1.105469.976562-1.660157-.328125.554688-.652344 1.105469-.976562 1.660157zm0 0"/><path d="m237.082031 162.558594c.46875-.621094.9375-1.238282 1.410157-1.855469-.472657.617187-.941407 1.234375-1.410157 1.855469zm0 0"/><path d="m109.398438 315.246094c.292968-.519532.59375-1.042969.894531-1.570313-.300781.527344-.601563 1.050781-.894531 1.570313zm0 0"/><path d="m228.472656 174.269531c.316406-.445312.636719-.890625.957032-1.335937-.320313.445312-.640626.890625-.957032 1.335937zm0 0"/><path d="m231.285156 170.355469c.386719-.535157.777344-1.066407 1.171875-1.601563-.394531.535156-.785156 1.066406-1.171875 1.601563zm0 0"/><path d="m286.722656 106.4375c.453125-.441406.90625-.878906 1.359375-1.320312-.453125.441406-.90625.878906-1.359375 1.320312zm0 0"/><path d="m317.242188 78.734375c.792968-.664063 1.585937-1.324219 2.378906-1.980469-.792969.65625-1.585938 1.316406-2.378906 1.980469zm0 0"/><path d="m324.808594 72.519531c.859375-.691406 1.71875-1.378906 2.574218-2.0625-.855468.683594-1.714843 1.371094-2.574218 2.0625zm0 0"/><path d="m89.515625 361.21875c.039063-.136719.082031-.277344.121094-.414062-.039063.136718-.082031.277343-.121094.414062zm0 0"/><path d="m321.03125 75.589844c.824219-.675782 1.648438-1.351563 2.472656-2.015625-.824218.664062-1.648437 1.339843-2.472656 2.015625zm0 0"/><path d="m90.664062 357.351562c.105469-.347656.214844-.691406.324219-1.039062-.109375.347656-.21875.691406-.324219 1.039062zm0 0"/><path d="m332.230469 66.664062c.96875-.746093 1.933593-1.492187 2.902343-2.226562-.96875.734375-1.933593 1.480469-2.902343 2.226562zm0 0"/><path d="m328.546875 69.539062c.90625-.710937 1.8125-1.425781 2.714844-2.128906-.902344.703125-1.808594 1.417969-2.714844 2.128906zm0 0"/><path d="m86.109375 377.707031c.03125-.253906.066406-.507812.097656-.761719-.03125.253907-.066406.507813-.097656.761719zm0 0"/><path d="m335.835938 63.902344c1.050781-.792969 2.101562-1.585938 3.148437-2.363282-1.046875.777344-2.097656 1.570313-3.148437 2.363282zm0 0"/><path d="m501.390625 32.351562c-1.882813-5.054687-4.625-9.460937-8.273437-13.113281-25.597657-25.605469-88.164063-6.695312-153.8125 42.0625 1.15625-.859375 2.316406-1.714843 3.472656-2.554687l.667968 41.191406c61.390626-51.035156 123.152344-77.507812 157.945313-67.585938zm0 0"/><path d="m86.675781 373.824219c.027344-.164063.050781-.324219.078125-.484375-.027344.160156-.050781.320312-.078125.484375zm0 0"/><path d="m276.933594 116.300781c-1.632813 1.683594-3.25 3.375-4.847656 5.070313 1.59375-1.695313 3.214843-3.382813 4.847656-5.070313zm0 0"/><path d="m88.308594 365.863281c.070312-.28125.136718-.5625.207031-.84375-.070313.28125-.136719.5625-.207031.84375zm0 0"/><path d="m87.449219 369.6875c.046875-.238281.101562-.480469.15625-.722656-.054688.242187-.109375.484375-.15625.722656zm0 0"/><path d="m305.804688 88.609375c.707031-.628906 1.414062-1.25 2.121093-1.871094-.707031.621094-1.414062 1.242188-2.121093 1.871094zm0 0"/><path d="m92.148438 352.789062c.050781-.144531.097656-.289062.148437-.4375-.050781.148438-.097656.292969-.148437.4375zm0 0"/><path d="m309.625 85.246094c.734375-.640625 1.472656-1.28125 2.210938-1.914063-.738282.636719-1.476563 1.273438-2.210938 1.914063zm0 0"/><path d="m301.984375 92.042969c.679687-.617188 1.359375-1.230469 2.042969-1.839844-.683594.613281-1.363282 1.222656-2.042969 1.839844zm0 0"/><path d="m313.433594 81.957031c.765625-.652343 1.527344-1.300781 2.292968-1.945312-.765624.644531-1.527343 1.292969-2.292968 1.945312zm0 0"/><path d="m95.382812 344.128906c.136719-.347656.273438-.695312.417969-1.042968-.144531.347656-.277343.695312-.417969 1.042968zm0 0"/><path d="m93.726562 348.394531c.136719-.367187.28125-.734375.417969-1.101562-.136719.367187-.28125.734375-.417969 1.101562zm0 0"/></g><path d="m87.605469 368.964844c.21875-1.023438.453125-2.058594.707031-3.101563-.253906 1.042969-.492188 2.078125-.707031 3.101563zm0 0" fill="#ffc843"/><path d="m95.800781 343.085938c.539063-1.328126 1.101563-2.664063 1.683594-4.011719-.582031 1.347656-1.144531 2.683593-1.683594 4.011719zm0 0" fill="#ffc843"/><path d="m86.753906 373.339844c.207032-1.203125.4375-2.421875.691406-3.652344-.253906 1.230469-.484374 2.449219-.691406 3.652344zm0 0" fill="#ffc843"/><path d="m86.210938 376.945312c.136718-1.03125.292968-2.070312.464843-3.121093-.175781 1.050781-.328125 2.089843-.464843 3.121093zm0 0" fill="#ffc843"/><path d="m122.703125 293.6875c.757813-1.136719 1.527344-2.273438 2.308594-3.414062-.78125 1.140624-1.550781 2.277343-2.308594 3.414062zm0 0" fill="#ffc843"/><path d="m116.332031 303.558594c.601563-.96875 1.210938-1.941406 1.828125-2.914063-.617187.972657-1.226562 1.945313-1.828125 2.914063zm0 0" fill="#ffc843"/><path d="m94.144531 347.289062c.402344-1.046874.8125-2.101562 1.238281-3.160156-.425781 1.058594-.835937 2.113282-1.238281 3.160156zm0 0" fill="#ffc843"/><path d="m119.359375 298.773438c.632813-.984376 1.277344-1.96875 1.929687-2.957032-.652343.988282-1.296874 1.972656-1.929687 2.957032zm0 0" fill="#ffc843"/><path d="m126.382812 288.289062c.597657-.859374 1.203126-1.722656 1.8125-2.582031-.609374.859375-1.214843 1.722657-1.8125 2.582031zm0 0" fill="#ffc843"/><path d="m92.296875 352.355469c.453125-1.3125.933594-2.632813 1.429687-3.960938-.496093 1.328125-.976562 2.648438-1.429687 3.960938zm0 0" fill="#ffc843"/><path d="m107.140625 319.324219c.734375-1.351563 1.488281-2.710938 2.257813-4.078125-.769532 1.367187-1.523438 2.726562-2.257813 4.078125zm0 0" fill="#ffc843"/><path d="m90.988281 356.3125c.371094-1.167969.753907-2.339844 1.160157-3.523438-.40625 1.183594-.789063 2.355469-1.160157 3.523438zm0 0" fill="#ffc843"/><path d="m102.234375 328.8125c.589844-1.199219 1.195313-2.40625 1.816406-3.617188-.621093 1.210938-1.226562 2.417969-1.816406 3.617188zm0 0" fill="#ffc843"/><path d="m89.636719 360.800781c.320312-1.136719.667969-2.289062 1.027343-3.449219-.359374 1.160157-.707031 2.3125-1.027343 3.449219zm0 0" fill="#ffc843"/><path d="m97.941406 338.035156c.464844-1.054687.9375-2.117187 1.425782-3.183594-.488282 1.066407-.960938 2.128907-1.425782 3.183594zm0 0" fill="#ffc843"/><path d="m112.9375 309.132812c.804688-1.351562 1.621094-2.710937 2.457031-4.070312-.835937 1.359375-1.652343 2.71875-2.457031 4.070312zm0 0" fill="#ffc843"/><path d="m88.515625 365.019531c.308594-1.253906.640625-2.519531 1-3.800781-.359375 1.28125-.6875 2.546875-1 3.800781zm0 0" fill="#ffc843"/><path d="m99.980469 333.519531c.605469-1.300781 1.222656-2.605469 1.863281-3.917969-.640625 1.316407-1.257812 2.617188-1.863281 3.917969zm0 0" fill="#ffc843"/><path d="m110.292969 313.675781c.546875-.957031 1.101562-1.917969 1.667969-2.882812-.5625.964843-1.121094 1.925781-1.667969 2.882812zm0 0" fill="#ffc843"/><path d="m104.820312 323.699219c.539063-1.035157 1.085938-2.070313 1.644532-3.109375-.558594 1.039062-1.105469 2.074218-1.644532 3.109375zm0 0" fill="#ffc843"/><path d="m129.589844 283.742188c.949218-1.324219 1.910156-2.648438 2.886718-3.976563-.976562 1.328125-1.9375 2.652344-2.886718 3.976563zm0 0" fill="#ffc843"/><path d="m135.070312 276.273438c-.367187.484374-.722656.96875-1.082031 1.457031.355469-.480469.71875-.964844 1.082031-1.445313zm0 0" fill="#ffc843"/><path d="m133.988281 277.730469c-.507812.679687-1.015625 1.359375-1.511719 2.035156-.976562 1.328125-1.941406 2.652344-2.886718 3.976563-.46875.65625-.929688 1.308593-1.394532 1.964843-.609374.863281-1.214843 1.722657-1.8125 2.582031-.457031.660157-.917968 1.324219-1.371093 1.984376-.78125 1.140624-1.550781 2.277343-2.308594 3.414062-.476563.710938-.945313 1.421875-1.414063 2.128906-.648437.988282-1.292968 1.972656-1.929687 2.957032-.402344.625-.800781 1.246093-1.199219 1.871093-.617187.972657-1.226562 1.945313-1.828125 2.914063-.3125.5-.628906 1.003906-.9375 1.503906-.835937 1.359375-1.652343 2.714844-2.457031 4.070312-.328125.554688-.652344 1.105469-.976562 1.660157-.5625.964843-1.121094 1.925781-1.667969 2.882812-.300781.523438-.601563 1.046875-.894531 1.570313-.769532 1.363281-1.523438 2.722656-2.257813 4.078125-.226563.421875-.449219.84375-.675781 1.265625-.554688 1.039062-1.105469 2.074218-1.640625 3.109375-.257813.496093-.519531.996093-.773438 1.496093-.617187 1.210938-1.222656 2.417969-1.816406 3.617188-.128906.261719-.257813.527344-.386719.789062-.640625 1.316407-1.257812 2.617188-1.863281 3.917969-.207031.445313-.410156.890625-.613281 1.332031-.488282 1.066407-.964844 2.128907-1.425782 3.183594-.152343.347656-.308593.695313-.457031 1.039063-.582031 1.347656-1.144531 2.683593-1.6875 4.011719-.140625.351562-.277343.695312-.414062 1.042968-.425781 1.0625-.839844 2.117188-1.238281 3.164063-.140626.367187-.28125.734375-.417969 1.101562-.496094 1.328125-.976563 2.652344-1.429688 3.960938-.050781.144531-.097656.289062-.148437.4375-.40625 1.183593-.792969 2.355469-1.160156 3.519531-.113282.347656-.222657.695312-.328126 1.039062-.359374 1.160157-.703124 2.3125-1.027343 3.453126-.039063.140624-.082031.277343-.121094.417968-.355469 1.277344-.6875 2.542969-1 3.796875-.070313.28125-.132813.5625-.203125.84375-.25 1.042969-.488281 2.078125-.707031 3.105469-.050781.238281-.105469.480469-.15625.722656-.253907 1.230469-.484375 2.445313-.691407 3.648438-.027343.164062-.050781.324218-.078124.484375-.175782 1.054687-.328126 2.089843-.46875 3.121093-.03125.253907-.066407.507813-.097657.761719-.148437 1.171875-.277343 2.328125-.371093 3.46875l24.535156 24.542969c1.160156-19.757812 10.203125-44.605469 25.742187-71.367188l-.945312-58.066406c-.367188.480469-.730469.964844-1.085938 1.445313zm0 0" fill="#ffa816"/><path d="m307.925781 86.734375c.566407-.496094 1.132813-.992187 1.699219-1.488281-.566406.496094-1.132812.992187-1.699219 1.488281zm0 0" fill="#ffc843"/><path d="m311.835938 83.332031c.53125-.460937 1.066406-.917969 1.597656-1.375-.53125.457031-1.066406.914063-1.597656 1.375zm0 0" fill="#ffc843"/><path d="m276.933594 116.300781c.285156-.296875.570312-.589843.855468-.886719-.285156.296876-.570312.589844-.855468.886719zm0 0" fill="#ffc843"/><path d="m315.726562 80.011719c.503907-.429688 1.011719-.851563 1.515626-1.277344-.503907.421875-1.011719.847656-1.515626 1.277344zm0 0" fill="#ffc843"/><path d="m319.621094 76.753906c.46875-.390625.9375-.777344 1.410156-1.164062-.46875.386718-.941406.773437-1.410156 1.164062zm0 0" fill="#ffc843"/><path d="m292.183594 101.164062c.71875-.6875 1.441406-1.375 2.164062-2.058593-.722656.683593-1.445312 1.371093-2.164062 2.058593zm0 0" fill="#ffc843"/><path d="m288.082031 105.117188c.816407-.796876 1.632813-1.59375 2.453125-2.378907-.820312.785157-1.636718 1.582031-2.453125 2.378907zm0 0" fill="#ffc843"/><path d="m282.925781 110.199219c1.261719-1.261719 2.527344-2.515625 3.796875-3.761719-1.265625 1.246094-2.535156 2.496094-3.796875 3.761719zm0 0" fill="#ffc843"/><path d="m327.382812 70.457031c.390626-.308593.777344-.613281 1.164063-.917969-.386719.308594-.773437.613282-1.164063.917969zm0 0" fill="#ffc843"/><path d="m304.023438 90.203125c.59375-.53125 1.1875-1.066406 1.78125-1.59375-.59375.53125-1.1875 1.0625-1.78125 1.59375zm0 0" fill="#ffc843"/><path d="m338.984375 61.539062c.105469-.078124.210937-.15625.320313-.238281-.109376.082031-.214844.160157-.320313.238281zm0 0" fill="#ffc843"/><path d="m300.105469 93.761719c.625-.574219 1.25-1.148438 1.878906-1.71875-.628906.566406-1.253906 1.144531-1.878906 1.71875zm0 0" fill="#ffc843"/><path d="m323.503906 73.574219c.433594-.355469.871094-.707031 1.304688-1.054688-.433594.347657-.871094.699219-1.304688 1.054688zm0 0" fill="#ffc843"/><path d="m296.164062 97.40625c.667969-.625 1.335938-1.25 2-1.867188-.664062.617188-1.332031 1.242188-2 1.867188zm0 0" fill="#ffc843"/><path d="m331.261719 67.410156c.324219-.25.648437-.496094.96875-.746094-.320313.25-.644531.496094-.96875.746094zm0 0" fill="#ffc843"/><path d="m335.132812 64.4375c.234376-.179688.472657-.355469.707032-.535156-.238282.179687-.472656.355468-.707032.535156zm0 0" fill="#ffc843"/><path d="m339.304688 61.300781c-.109376.082031-.214844.160157-.320313.238281-1.046875.777344-2.097656 1.570313-3.148437 2.363282-.234376.179687-.46875.355468-.703126.535156-.96875.734375-1.933593 1.480469-2.902343 2.226562-.324219.25-.644531.496094-.96875.75-.902344.703126-1.808594 1.414063-2.714844 2.125-.386719.308594-.773437.613282-1.164063.921876-.855468.679687-1.714843 1.367187-2.574218 2.058593-.433594.351563-.871094.703125-1.304688 1.054688-.824218.667969-1.648437 1.34375-2.472656 2.019531-.46875.386719-.941406.773438-1.410156 1.160156-.792969.65625-1.585938 1.316406-2.378906 1.980469-.503907.425781-1.011719.851563-1.515626 1.277344-.765624.644531-1.527343 1.292969-2.292968 1.945312-.53125.457031-1.066406.914063-1.597656 1.375-.738282.636719-1.476563 1.273438-2.210938 1.917969-.566406.492188-1.132812.988281-1.699219 1.488281-.707031.621094-1.414062 1.246094-2.121093 1.871094-.59375.53125-1.1875 1.0625-1.777344 1.59375-.683594.613281-1.363282 1.222656-2.042969 1.839844-.628906.570312-1.253906 1.144531-1.878906 1.71875-.648438.589843-1.292969 1.179687-1.9375 1.777343-.667969.617188-1.335938 1.242188-2 1.867188-.609375.566406-1.214844 1.128906-1.820313 1.703125-.722656.679687-1.445312 1.371094-2.164062 2.058594-.550782.523437-1.101563 1.042969-1.648438 1.570312-.816406.789063-1.632812 1.585938-2.453125 2.382813-.453125.4375-.90625.875-1.359375 1.320312-1.265625 1.242188-2.53125 2.496094-3.796875 3.761719-1.734375 1.730469-3.441406 3.472656-5.136719 5.214844-.285156.292969-.570312.589843-.855468.882812-1.632813 1.6875-3.25 3.378907-4.847656 5.070313l.804687 49.570312c10.53125-12.839844 22.144531-25.683594 34.730469-38.273437 11.792968-11.796875 23.800781-22.726563 35.828125-32.726563l-.671875-41.195312c-1.15625.839844-2.316406 1.695312-3.472656 2.554687zm0 0" fill="#ffa816"/><path d="m189.640625 215.867188.003906-.003907zm0 0" fill="#ff8025"/><path d="m232.457031 168.753906c.5625-.769531 1.128907-1.535156 1.699219-2.304687-.570312.769531-1.136719 1.535156-1.699219 2.304687zm0 0" fill="#ff8025"/><path d="m272.082031 121.371094c-.007812.007812-.015625.015625-.023437.027344.007812-.011719.015625-.019532.023437-.027344zm0 0" fill="#ff8025"/><path d="m235.460938 164.699219c.535156-.710938 1.078124-1.425781 1.621093-2.140625-.542969.714844-1.085937 1.425781-1.621093 2.140625zm0 0" fill="#ff8025"/><path d="m229.429688 172.933594c.613281-.859375 1.230468-1.71875 1.855468-2.578125-.625.859375-1.242187 1.71875-1.855468 2.578125zm0 0" fill="#ff8025"/><path d="m225.734375 178.171875c.898437-1.300781 1.816406-2.601563 2.738281-3.902344-.921875 1.300781-1.839844 2.605469-2.738281 3.902344zm0 0" fill="#ff8025"/><path d="m192.289062 213.410156c1.164063-1.066406 2.328126-2.136718 3.492188-3.1875-1.164062 1.050782-2.328125 2.117188-3.492188 3.1875zm0 0" fill="#ff8025"/><path d="m238.492188 160.699219c.507812-.660157 1.023437-1.320313 1.535156-1.980469-.511719.660156-1.027344 1.320312-1.535156 1.980469zm0 0" fill="#ff8025"/><path d="m243.371094 154.460938c.320312-.402344.636718-.804688.957031-1.210938-.320313.40625-.636719.808594-.957031 1.210938zm0 0" fill="#ff8025"/><path d="m252.855469 142.882812c.195312-.230468.390625-.457031.585937-.6875-.195312.226563-.390625.457032-.585937.6875zm0 0" fill="#ff8025"/><path d="m268.640625 125.050781c.089844-.09375.179687-.191406.269531-.289062-.089844.097656-.179687.195312-.269531.289062zm0 0" fill="#ff8025"/><path d="m249.597656 146.78125c.292969-.355469.589844-.710938.886719-1.066406-.296875.355468-.59375.710937-.886719 1.066406zm0 0" fill="#ff8025"/><path d="m246.40625 150.675781c.335938-.410156.664062-.820312 1-1.230469-.335938.410157-.664062.820313-1 1.230469zm0 0" fill="#ff8025"/><path d="m220.480469 232.6875h19.40625c5.800781 0 10.542969-4.746094 10.542969-10.542969v-21.507812c6.804687-9.820313 14.308593-19.757813 22.460937-29.695313l-.804687-49.570312c-.011719.007812-.019532.015625-.027344.027344-1.058594 1.117187-2.105469 2.242187-3.148438 3.363281-.089844.097656-.179687.195312-.269531.289062-5.269531 5.691407-10.339844 11.414063-15.199219 17.144531-.195312.226563-.390625.457032-.582031.6875-.800781.941407-1.589844 1.886719-2.375 2.832032-.296875.355468-.59375.710937-.886719 1.070312-.734375.886719-1.464844 1.773438-2.191406 2.660156-.332031.410157-.664062.820313-1 1.230469-.695312.859375-1.390625 1.71875-2.078125 2.578125-.320313.402344-.636719.804688-.957031 1.210938-1.128906 1.417968-2.242188 2.835937-3.34375 4.253906-.511719.660156-1.027344 1.320312-1.535156 1.984375-.472657.617187-.941407 1.234375-1.410157 1.855469-.542969.714844-1.085937 1.429687-1.621093 2.140625-.4375.585937-.871094 1.167969-1.304688 1.75-.570312.769531-1.136719 1.535156-1.699219 2.304687-.394531.535156-.785156 1.066406-1.171875 1.601563-.625.863281-1.242187 1.71875-1.855468 2.578125-.320313.445312-.640626.890625-.957032 1.335937-.921875 1.300781-1.839844 2.601563-2.738281 3.902344v21.503906c0 5.800781-4.742187 10.546875-10.542969 10.546875h-19.40625c-1.167968 1.050782-2.332031 2.121094-3.496094 3.1875-.878906.8125-1.761718 1.632813-2.644531 2.453125 0 0-.003906.003907-.003906.003907l.753906 46.429687c3.84375-4.128906 7.792969-8.238281 11.871094-12.316406 6.015625-6.019531 12.101563-11.785157 18.214844-17.292969zm0 0" fill="#ff8025"/><path d="m273.773438 225.300781-.882813-54.359375zm0 0" fill="#ff8025"/><path d="m131.351562 426.804688-62.398437 16.722656 16.71875-62.417969zm0 0" fill="#76ffd9"/><path d="m498.660156 13.699219c-18.355468-18.363281-52.066406-18.261719-94.917968.28125-40.585938 17.566406-85.460938 49.765625-126.359376 90.679687-22.15625 22.164063-41.699218 45.394532-58.089843 69.046875-.910157 1.3125-1.394531 2.871094-1.394531 4.464844v21.503906c0 1.46875-1.238282 2.710938-2.707032 2.710938h-19.40625c-1.941406 0-3.808594.714843-5.25 2.015625-6.316406 5.691406-12.542968 11.605468-18.507812 17.574218-36.875 36.886719-65.910156 77.371094-81.75 113.996094-6.871094 15.882813-10.914063 30.375-12.179688 43.121094l-16.171875 60.382812-14.5 14.503907 3.988281-23.902344c.710938-4.269531-2.171874-8.308594-6.441406-9.019531-4.269531-.714844-8.308594 2.167968-9.019531 6.4375l-7.347656 44.039062c-.082031.476563-.128907.949219-.152344 1.421875l-25.660156 25.664063c-3.058594 3.0625-3.058594 8.023437.003906 11.082031 1.53125 1.53125 3.535156 2.296875 5.539063 2.296875 2.007812 0 4.011718-.765625 5.542968-2.296875l25.421875-25.429687c.601563-.007813 1.207031-.054688 1.820313-.15625l43.527344-7.253907c4.269531-.710937 7.152343-4.746093 6.441406-9.015625-.710938-4.273437-4.75-7.15625-9.019532-6.445312l-23.882812 3.980468 14.824219-14.828124 60.21875-16.140626c12.777343-1.257812 27.320312-5.328124 43.246093-12.21875 36.617188-15.84375 77.089844-44.886718 113.96875-81.773437 5.972657-5.976563 11.882813-12.207031 17.566407-18.515625 1.296875-1.441406 2.015625-3.308594 2.015625-5.246094v-19.414062c0-1.464844 1.238281-2.707032 2.703125-2.707032h21.5c1.59375 0 3.15625-.488281 4.464843-1.398437 23.660157-16.402344 46.882813-35.953125 69.03125-58.109375 42.132813-42.144531 74.816407-88.1875 92.027344-129.644531 1.660156-3.996094-.238281-8.582031-4.234375-10.242188-4-1.660156-8.582031.238281-10.242187 4.234375-8.390625 20.203125-20.699219 41.617188-36.144532 63.152344l-11.628906 15.484375c-12.179687 15.515625-25.894531 30.960937-40.863281 45.933594-3.179687 3.183593-6.386719 6.300781-9.609375 9.371093l-16.894531 15.394532c-12.585938 10.964844-25.410157 21.050781-38.371094 30.148437h-19.035156c-10.132813 0-18.378907 8.246094-18.378907 18.382813v16.390625c-.65625.71875-1.320312 1.429687-1.980468 2.144531l-14.902344 15.429688c-14.554688 14.402343-29.628906 27.511718-44.734375 38.976562l-21.683594 15.316406c-13.898437 9.078125-27.628906 16.605469-40.800781 22.304688-13.390625 5.796875-25.5625 9.382812-36.0625 10.75l-14.59375-14.601563 128.808594-128.84375c3.058594-3.058593 3.058594-8.023437-.003906-11.082031-3.058594-3.058594-8.023438-3.058594-11.082032.003906l-128.804687 128.835938-14.59375-14.597656c1.367187-10.503907 4.953125-22.683594 10.746093-36.078126 5.835938-13.492187 13.59375-27.566406 22.960938-41.8125l15.324219-21.574218c11.53125-15.113282 24.695312-30.183594 39.148437-44.726563l15.433594-14.84375c.429688-.394531.851562-.789062 1.277344-1.179687h16.382812c10.136719 0 18.378906-8.246094 18.378906-18.382813v-19.042969c9.328126-13.296874 19.699219-26.457031 31-39.363281l15.402344-16.832031c2.785156-2.914062 5.617188-5.816406 8.496094-8.699219 15.191406-15.195312 30.914062-29.125 46.722656-41.484375l15.488282-11.578125c20.179687-14.40625 40.253906-26.074219 59.285156-34.308593 36.019531-15.585938 64.304687-16.894532 77.609375-3.585938 11.730469 11.730469 10.03125 32.378906 6.542969 47.640625-.964844 4.21875 1.671874 8.421875 5.894531 9.386719 4.214843.964844 8.421875-1.675782 9.386719-5.894532 6.265624-27.40625 2.554687-48.921874-10.738282-62.214843zm-382.445312 409.046875-36.179688 9.699218 9.695313-36.191406zm0 0" fill="#434c54"/><path d="m421.835938 90.546875c-3.0625-3.058594-8.027344-3.058594-11.085938.003906l-150.449219 150.492188c-3.0625 3.0625-3.058593 8.023437 0 11.082031 1.53125 1.53125 3.535157 2.296875 5.542969 2.296875 2.003906 0 4.011719-.765625 5.542969-2.296875l150.449219-150.492188c3.058593-3.0625 3.058593-8.023437 0-11.085937zm0 0" fill="#434c54"/></svg>